<?xml version="1.0" encoding="iso-8859-1"?>
<!-- Generator: Adobe Illustrator 19.0.0, SVG Export Plug-In . SVG Version: 6.00 Build 0)  -->
<svg version="1.1" id="Layer_1" xmlns="http://www.w3.org/2000/svg" xmlns:xlink="http://www.w3.org/1999/xlink" x="0px" y="0px"
	 viewBox="0 0 246.599 246.599" style="enable-background:new 0 0 246.599 246.599;" xml:space="preserve">
<g>
	<g>
		<path style="fill:#4EFFBB;" d="M237.758,189.113l-13.986,3.684l-6.079-6.082l6.04-1.592c3.761-0.99,6.008-4.843,5.019-8.604
			c-0.99-3.761-4.857-6.005-8.604-5.015l-13.986,3.684l-144-144l9.372,2.089c3.797,0.842,7.558-1.546,8.407-5.343
			c0.845-3.797-1.546-7.562-5.343-8.407l-32.754-7.301c-2.349-0.528-4.808,0.19-6.512,1.895c-1.701,1.701-2.416,4.156-1.891,6.509
			l7.301,32.857c0.729,3.286,3.638,5.515,6.868,5.515c0.507,0,1.021-0.056,1.536-0.169c3.797-0.842,6.192-4.607,5.346-8.403
			l-1.997-8.992l143.827,143.827l-3.987,13.845c-1.078,3.74,1.081,7.643,4.822,8.72c0.652,0.19,1.307,0.278,1.951,0.278
			c3.061,0,5.875-2.011,6.766-5.096l1.831-6.364l6.227,6.227l-3.987,13.845c-1.078,3.74,1.081,7.643,4.822,8.72
			c0.652,0.19,1.307,0.278,1.951,0.278c3.061,0,5.875-2.011,6.766-5.096l1.831-6.364l2.497,2.497
			c1.374,1.377,3.177,2.064,4.98,2.064s3.607-0.687,4.98-2.064c2.751-2.751,2.751-7.209,0-9.96l-2.465-2.465l6.04-1.592
			c3.761-0.99,6.008-4.843,5.019-8.604C245.373,190.367,241.513,188.127,237.758,189.113z"/>
		<path style="fill:#4EFFBB;" d="M83.548,185.264l51.488-51.488c-3.321-3.321-6.639-6.639-9.96-9.96l-51.372,51.372l-13.982-3.684
			c-3.747-0.99-7.615,1.25-8.604,5.015c-0.99,3.761,1.254,7.615,5.019,8.604l6.044,1.592l-6.082,6.082l-13.982-3.684
			c-3.751-0.986-7.615,1.25-8.604,5.015c-0.99,3.761,1.254,7.615,5.019,8.604l6.044,1.592l-2.465,2.465
			c-2.751,2.751-2.751,7.21,0,9.96c1.374,1.377,3.177,2.064,4.98,2.064s3.607-0.687,4.98-2.064l2.497-2.497l1.831,6.364
			c0.888,3.085,3.705,5.096,6.766,5.096c0.645,0,1.303-0.088,1.951-0.278c3.74-1.078,5.896-4.98,4.822-8.72l-3.987-13.845
			l6.227-6.227l1.831,6.364c0.888,3.085,3.705,5.096,6.766,5.096c0.645,0,1.303-0.088,1.951-0.278c3.74-1.078,5.896-4.98,4.822-8.72
			L83.548,185.264z"/>
		<path style="fill:#4EFFBB;" d="M208.332,33.276l9.372-2.089l-72.433,72.433c3.321,3.321,6.642,6.639,9.96,9.96l72.141-72.141
			l-1.997,8.992c-0.845,3.797,1.55,7.558,5.346,8.403c0.514,0.113,1.032,0.169,1.536,0.169c3.23,0,6.139-2.233,6.868-5.515
			l7.301-32.857c0.521-2.353-0.194-4.808-1.898-6.512c-1.701-1.705-4.159-2.423-6.512-1.895l-32.754,7.301
			c-3.797,0.845-6.188,4.61-5.343,8.407C200.774,31.73,204.539,34.118,208.332,33.276z"/>
		<g>
			<path style="fill:#222051;" d="M204.888,189.113l-13.982,3.684l-6.082-6.082l6.044-1.592c3.761-0.99,6.008-4.843,5.019-8.604
				c-0.99-3.761-4.857-6.005-8.604-5.015l-13.982,3.684l-144.007-144l9.372,2.089c3.797,0.842,7.558-1.546,8.407-5.343
				c0.845-3.797-1.546-7.562-5.343-8.407L8.974,12.225c-2.349-0.528-4.808,0.19-6.509,1.891c-1.705,1.705-2.42,4.159-1.898,6.512
				l7.301,32.857C8.597,56.771,11.506,59,14.736,59c0.504,0,1.021-0.056,1.536-0.169c3.797-0.842,6.192-4.607,5.346-8.403
				l-1.997-8.992l143.827,143.827l-3.987,13.845c-1.078,3.74,1.081,7.643,4.822,8.72c0.652,0.19,1.307,0.278,1.951,0.278
				c3.061,0,5.878-2.011,6.766-5.096l1.831-6.364l6.227,6.227l-3.987,13.845c-1.078,3.74,1.081,7.643,4.822,8.72
				c0.652,0.19,1.307,0.278,1.951,0.278c3.061,0,5.878-2.011,6.766-5.096l1.831-6.364l2.497,2.497
				c1.374,1.377,3.177,2.064,4.98,2.064s3.606-0.687,4.98-2.064c2.751-2.751,2.751-7.209,0-9.96l-2.469-2.465l6.044-1.592
				c3.761-0.99,6.008-4.843,5.019-8.604C212.502,190.367,208.639,188.127,204.888,189.113z"/>
			<path style="fill:#222051;" d="M50.678,185.264l51.488-51.488c-3.321-3.321-6.639-6.639-9.96-9.96l-51.372,51.372l-13.982-3.684
				c-3.747-0.99-7.615,1.25-8.604,5.015c-0.99,3.761,1.254,7.615,5.019,8.604l6.044,1.592l-6.082,6.082l-13.982-3.684
				c-3.751-0.986-7.615,1.25-8.604,5.015c-0.99,3.761,1.254,7.615,5.019,8.604l6.044,1.592l-2.469,2.465
				c-2.751,2.751-2.751,7.21,0,9.96c1.374,1.377,3.177,2.064,4.98,2.064s3.607-0.687,4.98-2.064l2.497-2.497l1.831,6.364
				c0.891,3.085,3.705,5.096,6.766,5.096c0.645,0,1.303-0.088,1.951-0.278c3.74-1.078,5.896-4.98,4.822-8.72l-3.987-13.845
				l6.227-6.227l1.831,6.364c0.891,3.085,3.705,5.096,6.766,5.096c0.645,0,1.303-0.088,1.951-0.278
				c3.74-1.078,5.896-4.98,4.822-8.72L50.678,185.264z"/>
			<path style="fill:#222051;" d="M129.553,86.465L112.4,103.617c3.321,3.321,6.639,6.639,9.96,9.96l17.152-17.152
				c2.722-2.722,2.715-7.125-0.004-9.847c-0.032-0.032-0.067-0.067-0.099-0.099C136.688,83.753,132.279,83.743,129.553,86.465z"/>
			<path style="fill:#222051;" d="M149.505,66.517l-1.19,1.19c-2.722,2.722-2.733,7.143-0.014,9.865
				c0.035,0.032,0.067,0.067,0.099,0.099c2.722,2.726,7.15,2.719,9.876-0.007l1.19-1.19c2.722-2.722,2.722-7.139,0-9.862
				l-0.099-0.099C156.64,63.794,152.227,63.794,149.505,66.517z"/>
			<path style="fill:#222051;" d="M211.66,14.117c-1.701-1.705-4.159-2.423-6.512-1.895l-32.367,7.213
				c-3.596,0.803-6.294,4.121-5.854,7.78c0.507,4.205,4.501,6.952,8.53,6.058l9.372-2.089l-16.574,16.571
				c-2.722,2.722-2.722,7.139,0,9.862c0.032,0.032,0.067,0.067,0.099,0.099c2.722,2.722,7.139,2.722,9.862,0l16.282-16.282
				l-1.934,8.706c-0.771,3.473,0.976,7.185,4.314,8.403c0.838,0.306,1.684,0.451,2.504,0.451c3.23,0,6.139-2.233,6.868-5.515
				l7.301-32.857C214.08,18.276,213.365,15.821,211.66,14.117z"/>
			<polygon style="fill:#222051;" points="103.043,19.456 103.166,19.414 114.165,38.316 121.121,38.316 121.121,8.27 114.165,8.27 
				114.165,27.109 114.042,27.152 103.043,8.27 96.066,8.27 96.066,38.316 103.043,38.316 			"/>
			<path style="fill:#222051;" d="M107.952,220.005c-2.05-0.799-3.448-1.462-4.198-1.99s-1.124-1.236-1.124-2.117
				c0-0.909,0.366-1.673,1.095-2.289c0.729-0.62,1.726-0.93,2.994-0.93c1.553,0,2.715,0.32,3.487,0.958
				c0.771,0.641,1.155,1.669,1.155,3.085h6.769l0.042-0.123c0.07-2.916-0.944-5.177-3.032-6.78c-2.092-1.603-4.85-2.406-8.277-2.406
				c-3.247,0-5.924,0.778-8.027,2.332c-2.106,1.553-3.156,3.592-3.156,6.107c0,2.571,0.905,4.543,2.712,5.913
				c1.81,1.37,4.579,2.659,8.305,3.871c1.842,0.648,3.117,1.254,3.818,1.828c0.701,0.571,1.053,1.395,1.053,2.465
				c0,0.937-0.359,1.691-1.074,2.272c-0.715,0.578-1.803,0.866-3.261,0.866c-1.775,0-3.092-0.366-3.952-1.102
				c-0.859-0.736-1.289-1.979-1.289-3.726h-6.794l-0.042,0.123c-0.07,3.441,1.078,5.959,3.437,7.562
				c2.36,1.603,5.237,2.406,8.636,2.406c3.413,0,6.149-0.747,8.213-2.24s3.096-3.561,3.096-6.202c0-2.585-0.895-4.624-2.684-6.107
				C114.07,222.294,111.435,221.036,107.952,220.005z"/>
			<polygon style="fill:#222051;" points="213.196,109.316 213.196,103.952 193.508,103.952 193.508,133.998 213.175,133.998 
				213.175,128.634 200.482,128.634 200.482,121.143 211.069,121.143 211.069,115.775 200.482,115.775 200.482,109.316 			"/>
			<polygon style="fill:#222051;" points="13.475,133.998 18.49,115.444 18.614,115.444 23.671,133.998 30.233,133.998 
				37.125,103.952 30.067,103.952 26.436,123.432 26.313,123.432 21.195,103.952 15.93,103.952 10.834,123.474 10.71,123.453 
				7.079,103.952 0,103.952 6.914,133.998 			"/>
		</g>
	</g>
</g>
<g>
</g>
<g>
</g>
<g>
</g>
<g>
</g>
<g>
</g>
<g>
</g>
<g>
</g>
<g>
</g>
<g>
</g>
<g>
</g>
<g>
</g>
<g>
</g>
<g>
</g>
<g>
</g>
<g>
</g>
</svg>
