<?xml version="1.0" encoding="iso-8859-1"?>
<!-- Generator: Adobe Illustrator 19.0.0, SVG Export Plug-In . SVG Version: 6.00 Build 0)  -->
<svg version="1.1" id="Layer_1" xmlns="http://www.w3.org/2000/svg" xmlns:xlink="http://www.w3.org/1999/xlink" x="0px" y="0px"
	 viewBox="0 0 263.602 263.602" style="enable-background:new 0 0 263.602 263.602;" xml:space="preserve">
<g>
	<g>
		<g>
			<path style="fill:#4EFFBB;" d="M242.251,74.275h-58.188l-3.477-33.563c-0.403-4.083-3.924-7.157-8.088-7.157h-65.467
				c-4.165,0-7.682,3.074-8.088,7.157l-3.477,33.563H34.244c-11.766,0-21.351,9.382-21.351,20.948v127.66
				c0,11.525,9.582,20.948,21.351,20.948h208.007c11.766,0,21.351-9.423,21.351-20.948V95.222
				C263.602,83.656,254.02,74.275,242.251,74.275z"/>
		</g>
		<g>
			<g id="XMLID_14_">
				<g>
					<g>
						<path style="fill:#302C58;" d="M125.354,121.59c11.606,0,21.066,9.26,21.066,20.663s-9.463,20.704-21.066,20.704
							c-11.647,0-21.066-9.301-21.066-20.704S113.707,121.59,125.354,121.59z"/>
					</g>
					<g>
						<polygon style="fill:#302C58;" points="152.244,35.704 154.834,60.491 98.949,60.491 101.498,35.704 						"/>
					</g>
					<g>
						<path style="fill:#302C58;" d="M74.686,175.494H16.255v-58.472h53.901c-3.68,7.682-5.783,16.214-5.783,25.234
							C64.377,154.547,68.176,165.991,74.686,175.494z"/>
					</g>
					<g>
						<path style="fill:#222051;" d="M105.737,214.072H78.592c-4.411,0-7.985,3.574-7.985,7.985l0,0
							c0,4.411,3.577,7.985,7.985,7.985h27.146c4.411,0,7.985-3.574,7.985-7.985l0,0
							C113.726,217.646,110.149,214.072,105.737,214.072z"/>
						<path style="fill:#222051;" d="M229.358,60.491H171.17l-3.477-33.563c-0.403-4.083-3.924-7.157-8.088-7.157H94.137
							c-4.165,0-7.682,3.074-8.088,7.157l-3.477,33.563H21.351C9.585,60.491,0,69.873,0,81.438v127.66
							c0,11.525,9.585,20.944,21.351,20.944h26.824c4.411,0,7.985-3.574,7.985-7.985l0,0c0-4.411-3.577-7.985-7.985-7.985H21.351
							c-2.83,0-5.096-2.224-5.096-4.974v-17.63h74.483c9.826,6.714,21.754,10.635,34.613,10.635s24.787-3.921,34.613-10.635h74.483
							v17.63c0,2.749-2.306,4.974-5.096,4.974h-93.194c-4.411,0-7.985,3.574-7.985,7.985l0,0c0,4.411,3.574,7.985,7.985,7.985h93.2
							c11.769,0,21.351-9.422,21.351-20.944V81.438C250.708,69.873,241.126,60.491,229.358,60.491z M101.498,35.704h50.749
							l2.587,24.787H98.949L101.498,35.704z M16.255,175.494v-58.472h53.901c-3.68,7.682-5.783,16.214-5.783,25.234
							c0,12.294,3.802,23.737,10.31,33.238H16.255z M125.354,184.795c-23.897,0-43.348-19.086-43.348-42.539
							s19.451-42.539,43.348-42.539c23.9,0,43.348,19.086,43.348,42.539S149.254,184.795,125.354,184.795z M234.453,175.494h-58.431
							c6.511-9.504,10.31-20.948,10.31-33.238c0-9.016-2.103-17.548-5.783-25.234h53.901v58.472H234.453z M234.453,101.049H169.43
							c-11.119-11.444-26.727-18.642-44.076-18.642s-32.997,7.198-44.116,18.642H16.255V81.435c0-2.749,2.265-4.974,5.096-4.974
							h208.007c2.79,0,5.096,2.224,5.096,4.974L234.453,101.049L234.453,101.049z"/>
					</g>
					<g>
						<path style="fill:#222051;" d="M162.679,142.253c0,20.22-16.742,36.637-37.324,36.637S87.99,162.472,87.99,142.253
							c0-20.179,16.783-36.637,37.365-36.637S162.679,122.077,162.679,142.253z M146.42,142.253
							c0-11.403-9.463-20.663-21.066-20.663c-11.647,0-21.066,9.26-21.066,20.663s9.422,20.704,21.066,20.704
							C136.96,162.957,146.42,153.657,146.42,142.253z"/>
					</g>
				</g>
			</g>
		</g>
		<g>
			<path style="fill:#302C58;" d="M180.552,117.023c3.68,7.682,5.783,16.214,5.783,25.234c0,12.294-3.802,23.737-10.31,33.238
				h58.431v-58.472H180.552z M212.793,141.113h-10.36c-4.489,0-8.132-3.574-8.132-7.979s3.64-7.979,8.132-7.979h10.36
				c4.489,0,8.132,3.574,8.132,7.979C220.922,137.542,217.283,141.113,212.793,141.113z"/>
		</g>
	</g>
</g>
<g>
</g>
<g>
</g>
<g>
</g>
<g>
</g>
<g>
</g>
<g>
</g>
<g>
</g>
<g>
</g>
<g>
</g>
<g>
</g>
<g>
</g>
<g>
</g>
<g>
</g>
<g>
</g>
<g>
</g>
</svg>
