<?xml version="1.0" encoding="iso-8859-1"?>
<!-- Generator: Adobe Illustrator 19.0.0, SVG Export Plug-In . SVG Version: 6.00 Build 0)  -->
<svg version="1.1" id="Layer_1" xmlns="http://www.w3.org/2000/svg" xmlns:xlink="http://www.w3.org/1999/xlink" x="0px" y="0px"
	 viewBox="0 0 280.291 280.291" style="enable-background:new 0 0 280.291 280.291;" xml:space="preserve">
<g>
	<g>
		<g>
			<path style="fill:#4EFFBB;" d="M272.159,52.509H197.31c-4.489,0-8.129,3.68-8.129,8.207V74.1H84.534V58.008
				c0-4.53-3.64-8.207-8.17-8.207h-26.69c-4.489,0-8.129,3.68-8.129,8.207v16.093H29.62c-4.489,0-8.129,3.68-8.129,8.21v161.463
				c0,4.53,3.64,8.21,8.129,8.21h223.172c4.489,0,8.129-3.68,8.129-8.21v-99.192h11.241c4.489,0,8.129-3.68,8.129-8.207V60.717
				C280.288,56.187,276.648,52.509,272.159,52.509z"/>
		</g>
		<g>
			<g id="XMLID_11_">
				<g>
					<rect x="36.312" y="44.724" style="fill:#302C58;" width="10.432" height="7.885"/>
					<path style="fill:#222051;" d="M178.262,214.032h-21.591c-4.546,0-8.229,3.683-8.229,8.229l0,0
						c0,4.546,3.683,8.229,8.229,8.229h21.591c4.546,0,8.229-3.683,8.229-8.229l0,0
						C186.491,217.719,182.804,214.032,178.262,214.032z"/>
					<path style="fill:#222051;" d="M250.668,31.015h-74.849c-4.489,0-8.129,3.68-8.129,8.21v13.384H63.039V36.476
						c0-4.511-3.658-8.17-8.17-8.17H28.183c-4.489,0-8.129,3.68-8.129,8.21v16.093H8.126C3.64,52.609,0,56.29,0,60.82v161.463
						c0,4.53,3.64,8.207,8.126,8.207h123.523c4.546,0,8.229-3.683,8.229-8.229l0,0c0-4.546-3.683-8.229-8.229-8.229H16.255V69.068
						H167.69v45.816c0,4.53,3.64,8.207,8.129,8.207h47.353v90.941h-19.888c-4.546,0-8.229,3.683-8.229,8.229l0,0
						c0,4.546,3.683,8.229,8.229,8.229h28.018c4.489,0,8.129-3.64,8.129-8.129v-99.27h11.241c4.489,0,8.129-3.68,8.129-8.207V39.225
						C258.797,34.695,255.157,31.015,250.668,31.015z M46.744,52.609H36.312v-7.885h10.432V52.609z M242.539,106.633h-58.591v-59.2
						h58.594v59.2H242.539z"/>
					<path style="fill:#302C58;" d="M242.539,47.433v59.2h-58.591v-59.2C183.948,47.433,242.539,47.433,242.539,47.433z
						 M239.952,78.043c0-14.718-11.847-26.73-26.446-26.73s-26.446,12.009-26.446,26.73c0,14.759,11.847,26.768,26.446,26.768
						S239.952,92.805,239.952,78.043z"/>
					<path style="fill:#222051;" d="M213.506,51.316c14.599,0,26.446,12.009,26.446,26.73c0,14.759-11.847,26.768-26.446,26.768
						S187.06,92.805,187.06,78.046C187.06,63.325,198.91,51.316,213.506,51.316z M223.697,78.043c0-5.661-4.571-10.31-10.191-10.31
						s-10.191,4.649-10.191,10.31c0,5.702,4.571,10.313,10.191,10.313S223.697,83.745,223.697,78.043z"/>
					<path style="fill:#222051;" d="M116.378,170.362c8.895,0,16.133,7.32,16.133,16.336s-7.239,16.336-16.133,16.336
						c-8.935,0-16.174-7.32-16.174-16.336C100.201,177.682,107.44,170.362,116.378,170.362z"/>
					<path style="fill:#222051;" d="M94.5,85.888v51.314c0,4.571-3.64,8.248-8.17,8.248H55.557H35.584
						c-4.489,0-8.129-3.68-8.129-8.248V85.888c0-4.53,3.64-8.21,8.129-8.21h50.749C90.86,77.681,94.5,81.361,94.5,85.888z
						 M78.204,128.995V94.098H43.713v34.897H78.204z"/>
					<rect x="43.713" y="94.098" style="fill:#222051;" width="34.494" height="34.897"/>
					<path style="fill:#222051;" d="M55.56,151.277c14.84,0,26.93,12.212,26.93,27.215c0,15.002-12.091,27.215-26.93,27.215
						s-26.93-12.212-26.93-27.215C28.63,163.486,40.72,151.277,55.56,151.277z"/>
				</g>
			</g>
		</g>
	</g>
</g>
<g>
</g>
<g>
</g>
<g>
</g>
<g>
</g>
<g>
</g>
<g>
</g>
<g>
</g>
<g>
</g>
<g>
</g>
<g>
</g>
<g>
</g>
<g>
</g>
<g>
</g>
<g>
</g>
<g>
</g>
</svg>
