<?xml version="1.0" encoding="iso-8859-1"?>
<!-- Generator: Adobe Illustrator 19.0.0, SVG Export Plug-In . SVG Version: 6.00 Build 0)  -->
<svg version="1.1" id="Layer_1" xmlns="http://www.w3.org/2000/svg" xmlns:xlink="http://www.w3.org/1999/xlink" x="0px" y="0px"
	 viewBox="0 0 245.366 245.366" style="enable-background:new 0 0 245.366 245.366;" xml:space="preserve">
<g>
	<g>
		<g>
			<g>
				<circle style="fill:#4EFFBB;" cx="149.95" cy="155.629" r="89.737"/>
			</g>
		</g>
		<g>
			<path style="fill:#222051;" d="M146.386,26.767c-2.677-0.986-5.389-1.867-8.101-2.641V6.586c0-3.557-3.029-6.586-6.621-6.586
				H88.555c-3.592,0-6.621,3.029-6.621,6.586v17.539c-7.495,2.071-14.764,4.962-21.65,8.629c-3.864,2.057-4.554,7.326-1.458,10.418
				l0.095,0.095c2.043,2.043,5.191,2.539,7.724,1.152c12.894-7.051,27.577-11.105,43.074-11.105
				c50.787,0,90.198,41.595,91.431,91.431c-1.233,49.871-40.644,91.29-91.431,91.395c-49.836,0.141-91.431-41.665-91.431-91.395
				c0-14.634,3.607-28.549,9.939-40.915c1.25-2.441,0.88-5.396-1.057-7.34c-0.109-0.109-0.215-0.218-0.324-0.324
				c-3.138-3.149-8.52-2.388-10.524,1.581c-36.636,72.57,26.344,165.04,111.995,149.913c50.083-8.84,84.809-52.971,86.042-102.912
				C213.303,81.358,187.522,42.193,146.386,26.767z M125.078,21.378c-9.967-1.409-20.075-1.374-29.937,0.035v-8.206h29.937V21.378z"
				/>
			<path style="fill:#222051;" d="M47.164,49.308c-0.039-0.039-0.074-0.074-0.113-0.113c-2.553-2.557-6.699-2.585-9.266-0.039
				c-1.898,1.884-3.846,3.913-5.501,5.674c-2.43,2.585-2.349,6.628,0.158,9.14c0.032,0.032,0.063,0.063,0.095,0.095
				c2.673,2.677,7.005,2.522,9.545-0.282c1.578-1.743,3.219-3.423,4.92-5.043C49.693,56.176,49.788,51.932,47.164,49.308z"/>
			<path style="fill:#222051;" d="M109.722,40.961c46.701,0,82.379,38.178,83.788,83.788c-1.409,45.574-37.086,83.788-83.788,83.788
				c-45.61,0-83.788-38.178-83.788-83.788C25.934,79.104,64.112,40.961,109.722,40.961z M179.809,131.053c-1.303,0-2.641,0-3.945,0
				c-3.698,0-6.445-3.029-6.621-6.621c-0.141-3.557,3.17-6.586,6.621-6.586c1.303,0,2.606,0,3.909,0
				c-4.085-33.107-29.69-59.979-63.043-63.255c0,1.374,0,2.747,0,4.121c0,3.698-3.029,6.445-6.621,6.586
				c-3.557,0.176-6.621-3.135-6.621-6.586c0-1.409,0-2.782,0-4.156c-33.459,3.029-60.648,30.042-63.994,63.29c1.62,0,3.24,0,4.86,0
				c3.698,0,6.445,3.029,6.621,6.586c0.141,3.592-3.17,6.621-6.621,6.621c-1.62,0-3.24,0-4.896,0
				c3.099,33.529,30.5,60.895,64.03,63.959c0-1.62,0-3.205,0-4.825c0-3.698,3.029-6.445,6.621-6.586
				c3.557-0.176,6.621,3.135,6.621,6.586c0,1.585,0,3.17,0,4.79C150.471,191.631,176.006,164.371,179.809,131.053z"/>
			<path style="fill:#302C58;" d="M175.865,131.053c-3.698,0-6.445-3.029-6.621-6.621c-0.141-3.557,3.17-6.586,6.621-6.586
				c1.303,0,2.606,0,3.909,0c-4.085-33.107-29.69-59.979-63.043-63.255c0,1.374,0,2.747,0,4.121c0,3.698-3.029,6.445-6.621,6.586
				c-3.557,0.176-6.621-3.135-6.621-6.586c0-1.409,0-2.782,0-4.156c-33.459,3.029-60.648,30.042-63.994,63.29c1.62,0,3.24,0,4.86,0
				c3.698,0,6.445,3.029,6.621,6.586c0.141,3.592-3.17,6.621-6.621,6.621c-1.62,0-3.24,0-4.896,0
				c3.099,33.529,30.5,60.895,64.03,63.959c0-1.62,0-3.205,0-4.825c0-3.698,3.029-6.445,6.621-6.586
				c3.557-0.176,6.621,3.135,6.621,6.586c0,1.585,0,3.17,0,4.79c33.741-3.346,59.275-30.606,63.079-63.924
				C178.506,131.053,177.168,131.053,175.865,131.053z M92.112,141.302l5.741-20.216l14.194,14.405L92.112,141.302z M121.591,125.77
				l-14.194-14.405l19.934-5.846L121.591,125.77z"/>
		</g>
		<path style="fill:#222051;" d="M141.948,90.656c1.761,1.726,2.395,4.297,1.726,6.727l-12.257,43.426
			c-0.07,0.176-0.141,0.423-0.247,0.634c-0.106,0.282-0.211,0.564-0.387,0.81c-0.141,0.247-0.317,0.493-0.493,0.74
			c-0.141,0.247-0.352,0.493-0.564,0.669c-0.211,0.211-0.387,0.423-0.634,0.599c-0.282,0.211-0.528,0.423-0.845,0.599
			c-0.458,0.247-0.951,0.458-1.479,0.599l-0.387,0.106l-42.264,12.362c-0.634,0.211-1.268,0.282-1.867,0.282
			c-1.761,0-3.487-0.704-4.79-2.008c-1.726-1.761-2.36-4.332-1.691-6.762l12.221-43.215l0.035-0.176
			c0.141-0.493,0.352-1.021,0.634-1.444c0.141-0.282,0.317-0.528,0.493-0.775c0.106-0.211,0.282-0.423,0.458-0.599
			c0.211-0.211,0.458-0.458,0.704-0.634c0.211-0.176,0.458-0.352,0.634-0.458c0.282-0.211,0.564-0.352,0.845-0.458
			s0.599-0.247,0.845-0.317c0.07-0.035,0.106-0.07,0.176-0.07c0.035,0,0.106-0.035,0.141-0.035l42.369-12.362
			C137.686,88.19,140.222,88.86,141.948,90.656z M121.591,125.77l5.741-20.251l-19.934,5.846L121.591,125.77z M112.046,135.491
			l-14.194-14.405l-5.741,20.216L112.046,135.491z"/>
	</g>
</g>
<g>
</g>
<g>
</g>
<g>
</g>
<g>
</g>
<g>
</g>
<g>
</g>
<g>
</g>
<g>
</g>
<g>
</g>
<g>
</g>
<g>
</g>
<g>
</g>
<g>
</g>
<g>
</g>
<g>
</g>
</svg>
