<?xml version="1.0" encoding="iso-8859-1"?>
<!-- Generator: Adobe Illustrator 19.0.0, SVG Export Plug-In . SVG Version: 6.00 Build 0)  -->
<svg version="1.1" id="Layer_1" xmlns="http://www.w3.org/2000/svg" xmlns:xlink="http://www.w3.org/1999/xlink" x="0px" y="0px"
	 viewBox="0 0 280.098 280.098" style="enable-background:new 0 0 280.098 280.098;" xml:space="preserve">
<g>
	<path style="fill:#26A6D1;" d="M0.031,0.07l69.753,26.253L140.097,0.07l69.963,26.253L280.067,0.07v253.775l-70.182,26.253
		l-70.051-26.253l-69.928,26.253L0.039,253.845V0.07H0.031z"/>
	<polygon style="fill:#2295BC;" points="70.037,279.984 139.834,253.784 140.044,253.862 140.044,0.026 70.037,26.165 	"/>
	<polygon style="fill:#2295BC;" points="210.06,26.261 210.06,279.966 280.067,253.784 280.067,0.009 	"/>
	<path style="fill:#EFC75E;" d="M210.06,26.261L140.097,0.009L113.17,10.055c-45.321,52.19-28.397,96.058,31.678,150.48
		c50.676,45.898,103.059,72.763,135.209,49.486V0C280.058,0,210.06,26.261,210.06,26.261z"/>
	<path style="fill:#3DB39E;" d="M280.067,0.009L210.06,26.261L140.097,0.009l-0.096,0.035
		c-62.367,52.864-31.809,83.107,22.682,133.267c44.008,40.525,79.239,64.056,117.384,41.724
		C279.673,157.568,280.067,0.105,280.067,0.009z"/>
	<path style="fill:#D7B354;" d="M210.06,26.261V207.01c27.163,13.293,51.823,16.189,70.007,3.019V0.009L210.06,26.261z"/>
	<path style="fill:#D7B354;" d="M140.044,0.026L125.308,5.53l-12.137,4.533c-44.061,50.729-29.167,93.625,26.874,145.964
		C140.044,156.028,140.044,0.026,140.044,0.026z"/>
	<path style="fill:#37A18E;" d="M280.067,0.009L210.06,26.261v144.485c24.056,14.351,46.485,18.053,70.007,4.279
		C279.673,157.568,280.067,0.105,280.067,0.009z"/>
	<path style="fill:#37A18E;" d="M140.044,0.026l-0.026,0.009L140,0.044c-53.03,44.944-38.863,73.542,0.044,111.923
		C140.044,111.967,140.044,0.026,140.044,0.026z"/>
</g>
<g>
</g>
<g>
</g>
<g>
</g>
<g>
</g>
<g>
</g>
<g>
</g>
<g>
</g>
<g>
</g>
<g>
</g>
<g>
</g>
<g>
</g>
<g>
</g>
<g>
</g>
<g>
</g>
<g>
</g>
</svg>
