<?xml version="1.0" encoding="iso-8859-1"?>
<!-- Generator: Adobe Illustrator 19.0.0, SVG Export Plug-In . SVG Version: 6.00 Build 0)  -->
<svg version="1.1" id="Layer_1" xmlns="http://www.w3.org/2000/svg" xmlns:xlink="http://www.w3.org/1999/xlink" x="0px" y="0px"
	 viewBox="0 0 184.895 184.895" style="enable-background:new 0 0 184.895 184.895;" xml:space="preserve">
<g>
	<g>
		<g>
			<path style="fill:#4EFFBB;" d="M166.672,52.245c-11.749-11.749-27.369-18.223-43.99-18.223c-16.617,0-32.237,6.473-43.986,18.223
				c-24.256,24.256-24.256,63.723,0,87.976c0.317,0.317,0.623,0.599,0.93,0.884l0.398,0.37c0.289,0.271,0.549,0.564,0.789,0.87
				l41.422,42.313l44.437-44.433c11.749-11.749,18.223-27.369,18.223-43.986C184.895,79.617,178.421,63.994,166.672,52.245z"/>
		</g>
		<g>
			<g id="XMLID_14_">
				<g>
					<path style="fill:#302C58;" d="M75.065,53.46c12.855,0,23.316,10.46,23.316,23.316s-10.46,23.351-23.316,23.351
						c-12.89,0-23.351-10.495-23.351-23.351S62.175,53.46,75.065,53.46z"/>
					<g>
						<path style="fill:#222051;" d="M130.149,22.572C112.398,4.856,87.498-3.068,61.999,1.511c-8.523,1.55-16.8,4.614-24.266,9.051
							C23.785,18.874,13.818,30.32,7.619,43.14c-2.184,4.543,1.233,9.826,6.269,9.826h0.176c2.677,0,5.107-1.479,6.269-3.839
							c2.923-5.987,6.903-11.623,11.869-16.589C43.93,20.81,59.568,14.329,76.192,14.329s32.226,6.48,43.99,18.209
							c11.728,11.763,18.209,27.366,18.209,43.99s-6.48,32.226-18.209,43.99l-44.447,44.447l-41.418-42.334
							c-0.247-0.282-0.493-0.599-0.81-0.845l-0.387-0.387c-0.317-0.282-0.599-0.564-0.916-0.881
							c-3.874-3.874-7.114-8.136-9.756-12.679c-1.268-2.184-3.698-3.452-6.199-3.452c-4.05,0-7.044,3.346-7.044,6.974
							c0,1.127,0.282,2.254,0.916,3.346c3.24,5.635,7.255,10.918,12.08,15.743c0.352,0.352,0.704,0.669,1.021,0.986
							c0.141,0.141,0.247,0.282,0.387,0.423l47.054,48.04c1.303,1.338,3.099,2.113,4.966,2.113c0.035,0,0.035,0,0.07,0
							c1.867,0,3.628-0.74,4.966-2.078l49.484-49.449c14.405-14.405,22.329-33.564,22.329-53.957S144.554,36.977,130.149,22.572z"/>
						<path style="fill:#222051;" d="M112.469,76.775c0-20.639-16.765-37.403-37.403-37.403S37.627,56.136,37.627,76.775
							s16.8,37.439,37.439,37.439S112.469,97.414,112.469,76.775z M51.715,76.775c0-12.855,10.46-23.316,23.351-23.316
							c12.855,0,23.316,10.46,23.316,23.316s-10.46,23.351-23.316,23.351C62.175,100.126,51.715,89.63,51.715,76.775z"/>
						<path style="fill:#222051;" d="M14.523,84.242c-0.458-3.698-0.599-7.467-0.387-11.165c0.211-4.05-2.853-7.537-6.903-7.537
							H7.056c-3.663,0-6.727,2.853-6.938,6.516c-0.247,4.543-0.106,9.122,0.423,13.63c0.387,3.487,3.381,6.128,6.903,6.128H7.62
							C11.705,91.814,15.016,88.292,14.523,84.242z"/>
					</g>
				</g>
			</g>
		</g>
	</g>
</g>
<g>
</g>
<g>
</g>
<g>
</g>
<g>
</g>
<g>
</g>
<g>
</g>
<g>
</g>
<g>
</g>
<g>
</g>
<g>
</g>
<g>
</g>
<g>
</g>
<g>
</g>
<g>
</g>
<g>
</g>
</svg>
