<?xml version="1.0" encoding="iso-8859-1"?>
<!-- Generator: Adobe Illustrator 19.0.0, SVG Export Plug-In . SVG Version: 6.00 Build 0)  -->
<svg version="1.1" id="Layer_1" xmlns="http://www.w3.org/2000/svg" xmlns:xlink="http://www.w3.org/1999/xlink" x="0px" y="0px"
	 viewBox="0 0 261.679 261.679" style="enable-background:new 0 0 261.679 261.679;" xml:space="preserve">
<g>
	<g>
		<path style="fill:#4EFFBB;" d="M230.477,25.037c-20.427,8.594-40.89,17.187-61.353,25.781
			c-13.75-5.797-27.517-11.57-41.278-17.346v211.446c12.883,5.41,25.774,10.82,38.636,16.233c0.88,0.352,1.691,0.493,2.43,0.493
			c0.07,0,0.141,0,0.247,0.035c0.035-0.035,0.106-0.035,0.141-0.035c0.775,0,1.585-0.141,2.465-0.493
			c20.744-8.735,41.489-17.434,62.233-26.133c2.747-1.162,4.86-3.205,4.86-6.375V31.412
			C238.86,27.573,234.528,23.346,230.477,25.037z"/>
		<g>
			<g id="XMLID_6_">
				<g>
					<path style="fill:#302C58;" d="M147.57,97.026c0,41.066,0,82.133,0,123.199c-16.342-6.833-32.684-13.701-49.026-20.568
						c0-29.409,0-58.852,0-88.261h6.023c0,4.86,3.945,8.805,8.805,8.805s8.805-3.945,8.805-8.805c0-3.346-1.867-6.234-4.614-7.748
						l9.932-1.691c1.585,2.325,4.262,3.874,7.29,3.874c4.86,0,8.805-3.945,8.805-8.805C143.59,97.026,147.57,97.026,147.57,97.026z"
						/>
					<path style="fill:#302C58;" d="M147.57,37.223c0,19.934,0,39.869,0,59.803h-3.98c0-4.86-3.945-8.805-8.805-8.805
						s-8.805,3.945-8.805,8.805c0,1.831,0.564,3.522,1.514,4.931l-9.932,1.691c-1.233-0.669-2.677-1.057-4.191-1.057
						c-4.86,0-8.805,3.945-8.805,8.805h-6.023c0-31.592,0-63.149,0-94.741C114.886,23.487,131.228,30.355,147.57,37.223z"/>
					<circle style="fill:#222051;" cx="197.617" cy="54.762" r="8.805"/>
					<path style="fill:#222051;" d="M177.929,69.555c4.86,0,8.805,3.945,8.805,8.805c0,4.896-3.945,8.805-8.805,8.805
						s-8.805-3.909-8.805-8.805C169.124,73.499,173.069,69.555,177.929,69.555z"/>
					<path style="fill:#222051;" d="M134.785,88.221c4.86,0,8.805,3.945,8.805,8.805s-3.945,8.805-8.805,8.805
						c-3.029,0-5.706-1.55-7.29-3.874c-0.951-1.409-1.514-3.099-1.514-4.931C125.98,92.166,129.925,88.221,134.785,88.221z"/>
					<path style="fill:#222051;" d="M117.563,103.648c2.747,1.514,4.614,4.402,4.614,7.748c0,4.86-3.945,8.805-8.805,8.805
						s-8.805-3.945-8.805-8.805s3.945-8.805,8.805-8.805C114.886,102.591,116.33,102.978,117.563,103.648z"/>
					<path style="fill:#222051;" d="M216.389,0.383c-20.427,8.594-40.89,17.187-61.353,25.781
						C134.82,17.641,114.604,9.153,94.352,0.665c-0.07-0.035-0.106-0.035-0.176-0.07c-0.175-0.071-0.316-0.141-0.457-0.212
						c-0.07,0-0.141,0-0.211-0.035c-0.352-0.106-0.669-0.211-1.021-0.247c-0.211-0.035-0.458-0.035-0.704-0.035
						c-0.211,0-0.458,0-0.669,0.035c-0.352,0.035-0.669,0.141-1.021,0.247c-0.07,0.035-0.141,0.035-0.211,0.035
						c-0.141,0.07-0.282,0.141-0.458,0.211c-0.07,0.035-0.106,0.035-0.176,0.07C68.713,9.294,48.18,17.887,27.682,26.516
						c-2.747,1.162-4.86,3.205-4.86,6.375v14.165c0,3.649,2.955,6.604,6.604,6.604l0,0c3.645,0,6.604-2.955,6.604-6.604v-9.833
						c16.342-6.868,32.684-13.736,49.026-20.568v183.002c-16.342,6.868-32.684,13.736-49.026,20.568V111.192
						c0-3.645-2.958-6.604-6.604-6.604l0,0c-3.649,0-6.604,2.958-6.604,6.604v118.93c0,1.796,0.599,3.17,1.55,4.191
						c1.268,2.219,3.663,3.487,6.833,2.184c20.181-8.488,40.397-16.976,60.578-25.464c20.216,8.488,40.432,16.976,60.613,25.464
						c0.88,0.352,1.691,0.493,2.43,0.493c0.07,0,0.141,0,0.247,0.035c0.035-0.035,0.106-0.035,0.141-0.035
						c0.775,0,1.585-0.141,2.465-0.493c20.744-8.735,41.489-17.434,62.233-26.133c2.747-1.162,4.86-3.205,4.86-6.375V6.758
						C224.772,2.919,220.44-1.307,216.389,0.383z M147.57,220.225c-16.342-6.833-32.684-13.701-49.026-20.568V16.655
						c16.342,6.833,32.684,13.701,49.026,20.568V220.225z M211.529,199.657c-16.307,6.868-32.649,13.736-48.991,20.568V37.223
						c16.342-6.868,32.684-13.736,48.991-20.568V199.657z"/>
					<path style="fill:#222051;" d="M29.425,92.007L29.425,92.007c3.645,0,6.604-2.958,6.604-6.604V72.844
						c0-3.645-2.958-6.604-6.604-6.604l0,0c-3.649,0-6.604,2.958-6.604,6.604v12.559C22.821,89.049,25.78,92.007,29.425,92.007z"/>
					<path style="fill:#222051;" d="M67.128,129.605c4.896,0,8.805,3.945,8.805,8.805s-3.909,8.805-8.805,8.805
						c-4.86,0-8.805-3.945-8.805-8.805S62.267,129.605,67.128,129.605z"/>
					<path style="fill:#222051;" d="M52.899,155.843c4.86,0,8.805,3.945,8.805,8.805c0,4.896-3.945,8.805-8.805,8.805
						s-8.805-3.909-8.805-8.805C44.094,159.788,48.039,155.843,52.899,155.843z"/>
				</g>
			</g>
		</g>
	</g>
</g>
<g>
</g>
<g>
</g>
<g>
</g>
<g>
</g>
<g>
</g>
<g>
</g>
<g>
</g>
<g>
</g>
<g>
</g>
<g>
</g>
<g>
</g>
<g>
</g>
<g>
</g>
<g>
</g>
<g>
</g>
</svg>
