<?xml version="1.0" encoding="iso-8859-1"?>
<!-- Generator: Adobe Illustrator 19.0.0, SVG Export Plug-In . SVG Version: 6.00 Build 0)  -->
<svg version="1.1" id="Layer_1" xmlns="http://www.w3.org/2000/svg" xmlns:xlink="http://www.w3.org/1999/xlink" x="0px" y="0px"
	 viewBox="0 0 308.878 308.878" style="enable-background:new 0 0 308.878 308.878;" xml:space="preserve">
<g>
	<g>
		<path style="fill:#4EFFBB;" d="M304.331,259.273c-30.219-54.555-60.437-109.146-90.691-163.702
			c-1.374-2.465-3.522-3.381-5.67-3.205c-2.148-0.176-4.332,0.704-5.706,3.205c-4.332,7.819-8.664,15.602-12.996,23.421
			c-9.333-20.885-18.666-41.771-28-62.656c-1.233-2.747-3.487-3.663-5.706-3.346c-2.219-0.317-4.473,0.564-5.706,3.346
			c-30.219,67.657-60.472,135.279-90.691,202.936c-1.972,4.402,0.282,9.932,5.706,9.932c17.469,0,34.938,0,52.372,0
			c43.003,0,86.007,0,129.01,0h52.372C303.732,269.205,306.761,263.605,304.331,259.273z"/>
		<g id="XMLID_22_">
			<g>
				<path style="fill:#302C58;" d="M209.449,156.441c14.817,26.721,29.634,53.478,44.416,80.199h-37.727
					c-12.478-27.943-24.96-55.887-37.474-83.83c5.177-2.553,7.984-4.279,15.285-0.863c5.072,2.374,8.234,4.029,14.063,4.533
					C208.512,156.516,208.98,156.516,209.449,156.441z"/>
				<path style="fill:#302C58;" d="M150.924,120.507c17.293,38.65,34.547,77.332,51.84,115.982c-34.942,0-69.88,0-104.821,0
					c-19.396,0-38.826,0-58.257,0c18.11-40.503,36.224-81.041,54.302-121.544c3.638,1.676,6.917,4.279,10.946,5.205
					c4.991,1.106,10.267,0.465,14.94-1.497c7.667-3.209,9.876-6.561,18.61-2.462C143.042,118.334,146.074,119.866,150.924,120.507z"
					/>
			</g>
		</g>
		<g>
			<path style="fill:#222051;" d="M124.572,262.323H30.796c-3.888,0-7.044,3.156-7.044,7.044s3.152,7.044,7.044,7.044h93.776
				c3.888,0,7.044-3.156,7.044-7.044S128.461,262.323,124.572,262.323z"/>
			<path style="fill:#222051;" d="M205.663,262.323H152.08c-3.888,0-7.044,3.156-7.044,7.044s3.156,7.044,7.044,7.044h53.583
				c3.888,0,7.044-3.156,7.044-7.044S209.554,262.323,205.663,262.323z"/>
			<path style="fill:#222051;" d="M98.196,85.196c3.138,3.455,8.794,2.518,10.612-1.786c1.592-3.769,3.349-7.932,4.631-10.953
				c1.06-2.497,0.43-5.396-1.588-7.209c-0.032-0.028-0.067-0.06-0.099-0.088c-3.223-2.888-8.308-1.853-10.098,2.085
				c-1.648,3.624-3.511,7.724-4.86,10.7c-1.05,2.314-0.63,5.019,1.081,6.896C97.981,84.956,98.087,85.076,98.196,85.196z"/>
			<path style="fill:#222051;" d="M274.721,237.049h-5.846c-29.877-53.939-59.75-107.91-89.663-161.846
				c-1.374-2.465-3.522-3.381-5.67-3.205c-2.148-0.176-4.332,0.704-5.706,3.205c-4.332,7.819-8.664,15.602-12.996,23.421
				c-9.333-20.885-18.666-41.771-28-62.656c-1.233-2.747-3.29-3.356-5.695-3.501c-3.05,0.275-4.818,1.43-7.206,7.195
				c-1.377,3.374-2.332,5.878-3.846,9.326c-1.546,3.645-2.483,6.79-0.007,9.238l0.099,0.099c3.233,3.198,8.668,2.173,10.517-1.979
				l0.433-0.969c7.326,16.377,14.616,32.754,21.942,49.132c-2.148-1.233-4.297-2.43-6.762-2.994
				c-4.896-1.092-10.143-0.458-14.722,1.479c-7.607,3.17-9.756,6.48-18.42,2.43c-1.303-0.634-2.501-1.197-3.628-1.691
				c0.416-0.93,0.828-1.86,1.243-2.789c1.099-2.462,0.567-5.346-1.338-7.252c-0.032-0.035-0.067-0.067-0.099-0.099
				c-3.226-3.226-8.682-2.219-10.541,1.944c-21.083,47.166-42.169,94.329-63.244,141.51H7.044c-3.892,0-7.044,3.156-7.044,7.044
				s3.156,7.044,7.044,7.044h267.678c3.888,0,7.044-3.156,7.044-7.044C281.765,240.204,278.61,237.049,274.721,237.049z
				 M173.542,92.145c9.051,16.377,18.103,32.719,27.154,49.061c-2.641-1.479-5.213-3.135-8.241-3.804
				c-4.931-1.092-10.143-0.458-14.722,1.479c-1.55,0.634-2.853,1.268-4.085,1.867c-4.015-9.016-8.03-18.033-12.08-27.049
				C165.547,106.514,169.527,99.33,173.542,92.145z M40.587,235.63c17.892-40.01,35.783-80.055,53.64-120.064
				c3.592,1.655,6.833,4.226,10.812,5.142c4.931,1.092,10.143,0.458,14.757-1.479c7.572-3.17,9.756-6.48,18.385-2.43
				c4.508,2.113,7.502,3.628,12.292,4.262c17.082,38.178,34.128,76.392,51.21,114.57H40.587V235.63z M216.052,235.63
				c-12.221-27.366-24.443-54.732-36.699-82.097c5.072-2.501,7.819-4.191,14.968-0.845c4.966,2.325,8.065,3.945,13.771,4.438
				c0.493,0.035,0.951,0.035,1.409-0.035c14.511,26.168,29.021,52.372,43.496,78.54h-36.945V235.63z"/>
			<path style="fill:#222051;" d="M301.834,237.816h-6.171c-3.888,0-7.044,3.156-7.044,7.044s3.156,7.044,7.044,7.044h6.171
				c3.888,0,7.044-3.156,7.044-7.044C308.878,240.973,305.725,237.816,301.834,237.816z"/>
		</g>
	</g>
</g>
<g>
</g>
<g>
</g>
<g>
</g>
<g>
</g>
<g>
</g>
<g>
</g>
<g>
</g>
<g>
</g>
<g>
</g>
<g>
</g>
<g>
</g>
<g>
</g>
<g>
</g>
<g>
</g>
<g>
</g>
</svg>
