<?xml version="1.0" encoding="iso-8859-1"?>
<!-- Generator: Adobe Illustrator 19.0.0, SVG Export Plug-In . SVG Version: 6.00 Build 0)  -->
<svg version="1.1" id="Layer_1" xmlns="http://www.w3.org/2000/svg" xmlns:xlink="http://www.w3.org/1999/xlink" x="0px" y="0px"
	 viewBox="0 0 257.88 257.88" style="enable-background:new 0 0 257.88 257.88;" xml:space="preserve">
<g>
	<g>
		<path style="fill:#4EFFBB;" d="M227.921,59.673l15.071,17.504c2.296,2.666,2.222,6.635-0.176,9.213l-14.764,15.888
			c-1.307,1.405-3.142,2.205-5.065,2.205H86.246c-3.818,0-6.91-3.096-6.91-6.914V64.178c0-3.818,3.096-6.91,6.91-6.91H222.68
			C224.695,57.271,226.608,58.148,227.921,59.673z"/>
		<path style="fill:#4EFFBB;" d="M228.154,147.645v39.295c0,2.944-2.258,5.332-5.043,5.332H83.689c-1.402,0-2.74-0.616-3.695-1.701
			l-16.462-18.726c-1.747-1.99-1.803-5.047-0.13-7.107l16.726-20.568c0.958-1.18,2.356-1.856,3.825-1.856H223.11
			C225.896,142.313,228.154,144.701,228.154,147.645z"/>
		<g>
			<g id="XMLID_15_">
				<g>
					<path style="fill:#222051;" d="M220.514,249.673c0.704,4.402-2.677,8.206-6.974,8.206h-15.567
						c-3.874,0-7.044-3.135-7.044-7.044c0-3.874,3.17-7.044,7.044-7.044h15.215C216.676,243.791,219.951,246.222,220.514,249.673z"
						/>
					<path style="fill:#222051;" d="M219.881,57.62c2.219,2.606,2.148,6.445-0.176,8.946l-25.992,28
						c-1.268,1.374-3.064,2.148-4.931,2.148h-44.976v12.327h50.822c3.698,0,6.727,2.994,6.727,6.727v58.218
						c0,3.698-3.029,6.727-6.727,6.727h-50.822v63.079h27.507c3.909,0,7.044,3.17,7.044,7.044c0,3.909-3.135,7.044-7.044,7.044
						h-136.9c-4.262,0-7.643-3.804-6.938-8.206c0.564-3.452,3.804-5.882,7.326-5.882h59.451v-63.079H45.93
						c-1.867,0-3.663-0.775-4.931-2.148l-25.992-28c-2.325-2.501-2.395-6.375-0.176-8.946l25.992-30.254
						c1.268-1.479,3.135-2.325,5.107-2.325h48.322V96.714H40.083c-3.698,0-6.727-2.994-6.727-6.727V31.768
						c0-3.733,3.029-6.727,6.727-6.727h54.168V6.269C94.251,2.853,97.14,0,100.556,0h36.946c3.416,0,6.304,2.888,6.304,6.269v18.772
						h44.976c1.972,0,3.839,0.845,5.107,2.325L219.881,57.62z M205.793,61.811l-20.075-23.316H46.81V83.26h139.048L205.793,61.811z
						 M187.901,167.259v-44.8H48.994L28.919,145.81l19.934,21.449H187.901z M131.232,242.735v-62.022H106.86v62.022H131.232z
						 M131.232,109.04V96.714H106.86v12.327L131.232,109.04L131.232,109.04z M131.232,25.041V12.573H106.86v12.468H131.232z"/>
					<path style="fill:#302C58;" d="M185.717,38.495l20.075,23.316L185.858,83.26H46.81V38.495H185.717z M177.018,67.904
						c4.262,0,7.643-3.804,6.938-8.206c-0.564-3.452-3.804-5.882-7.326-5.882h-22.646c-3.909,0-7.044,3.17-7.044,7.044
						c0,3.909,3.135,7.044,7.044,7.044H177.018z M134.367,60.86c0-3.874-3.17-7.044-7.044-7.044h-7.784
						c-3.909,0-7.044,3.17-7.044,7.044c0,3.909,3.135,7.044,7.044,7.044h7.784C131.197,67.904,134.367,64.769,134.367,60.86z
						 M99.922,60.86c0-3.874-3.17-7.044-7.044-7.044H65.9c-3.487,0-6.762,2.43-7.326,5.882c-0.704,4.402,2.677,8.206,6.974,8.206
						h27.331C96.752,67.904,99.922,64.769,99.922,60.86z"/>
					<path style="fill:#302C58;" d="M187.901,122.459v44.8H48.853L28.919,145.81l20.075-23.351H187.901z M177.018,144.119
						c0-3.874-3.17-7.044-7.044-7.044H58.503c-3.909,0-7.044,3.17-7.044,7.044c0,3.909,3.135,7.044,7.044,7.044h111.471
						C173.848,151.163,177.018,148.029,177.018,144.119z"/>
				</g>
			</g>
		</g>
	</g>
</g>
<g>
</g>
<g>
</g>
<g>
</g>
<g>
</g>
<g>
</g>
<g>
</g>
<g>
</g>
<g>
</g>
<g>
</g>
<g>
</g>
<g>
</g>
<g>
</g>
<g>
</g>
<g>
</g>
<g>
</g>
</svg>
